<svg id="Calque_1" data-name="Calque 1" xmlns="http://www.w3.org/2000/svg" viewBox="0 0 102.26 102.26"><title>btp</title><circle cx="51.13" cy="51.13" r="50.63" style="fill:#ff5c23;stroke:#fff;stroke-miterlimit:10"/><path d="M7627.4,6998.67v-0.28l0,0h0l-2.47-3.95a2.05,2.05,0,0,0-.93-3.25v-12.09h0A2.06,2.06,0,0,0,7626,6977v-1.4a0.66,0.66,0,0,0-.66-0.66H7620a4.88,4.88,0,0,0-2.12.49l-20.47,9.93a2,2,0,0,0-1.47-.62h-0.33a2.06,2.06,0,0,0-2,1.51l-0.73,2.68h-1.85a0.66,0.66,0,0,0,0,1.31h1.49l-0.6,2.19h-5.8a2.06,2.06,0,0,0-2.06,2.06v7.7a0.66,0.66,0,0,0,.66.66h7.74v1.49h-4.24a2.06,2.06,0,0,0-2.06,2.06v8.94l-0.63,1.26a0.66,0.66,0,0,0-.07.29v1.44h0a0.66,0.66,0,0,0,0,1.31h4.9a0.66,0.66,0,0,0,0-1.31h0v-8.48h10.58v8.48h0a0.66,0.66,0,0,0,0,1.31h4.9a0.66,0.66,0,0,0,0-1.31h0v-1.44a0.66,0.66,0,0,0-.07-0.29l-0.63-1.26v-8.94a2.06,2.06,0,0,0-2.06-2.06h-4.24v-1.49h1.44a0.66,0.66,0,0,0,.66-0.66v-2.8a0.66,0.66,0,0,0-.34-0.57l5.59-3a0.65,0.65,0,0,0,.15-0.11l16.37-16.37v11.86a2.05,2.05,0,0,0-.93,3.25l-2.47,3.95h0l0,0v4.5a0.66,0.66,0,0,0,.66.66h7a0.66,0.66,0,0,0,.66-0.66v-4.21Zm-4.15-3.53a2.05,2.05,0,0,0,.48-0.06l1.84,2.94h-4.63l1.84-2.94A2.05,2.05,0,0,0,7623.24,6995.15Zm-4.78-18.54a3.56,3.56,0,0,1,1.06-.32l-12.65,12.65H7598v-2.14a2.06,2.06,0,0,0,0-.26ZM7598,6990.25h7.56l-7.56,7.56v-7.56Zm-3.1-3.65a0.74,0.74,0,0,1,.72-0.55H7596a0.74,0.74,0,0,1,.74.74v5.64h-3.38Zm-8.75,7.15h10.54v5h-11.28v-4.24A0.74,0.74,0,0,1,7586.16,6993.75Zm2.84,24.58h-2.19V7017l0.63-1.26a0.66,0.66,0,0,0,.07-0.29v-5.64H7589v8.48Zm13.21,0v-8.48h1.49v5.64a0.66,0.66,0,0,0,.07.29l0.63,1.26v1.29h-2.19Zm1.49-11.94v2.14h-16.18v-2.14a0.74,0.74,0,0,1,.74-0.74H7603A0.74,0.74,0,0,1,7603.7,7006.39Zm-6.3-2.06h-3.59v-1.49h3.59v1.49Zm2.1-2.8h-14.08V7000h14.08v1.49Zm22.58-23.6-16.73,16.73-5.15,2.81,7.41-7.41h0l13.8-13.8h3.27V6977a0.74,0.74,0,0,1-.74.74h-1.4A0.66,0.66,0,0,0,7622.08,6977.94Zm1.16,14.41a0.74,0.74,0,1,1-.74.74A0.74,0.74,0,0,1,7623.24,6992.35Zm2.84,9.88h-5.68v-2.89h5.68v2.89Z" transform="translate(-7551.55 -6946.58)" style="fill:#fff"/><path d="M7587.56,6996.55h1.4a0.66,0.66,0,0,0,0-1.31h-1.4A0.66,0.66,0,0,0,7587.56,6996.55Z" transform="translate(-7551.55 -6946.58)" style="fill:#fff"/><path d="M7593.16,6996.55h1.4a0.66,0.66,0,0,0,0-1.31h-1.4A0.66,0.66,0,0,0,7593.16,6996.55Z" transform="translate(-7551.55 -6946.58)" style="fill:#fff"/><path d="M7591.06,6996.55a0.66,0.66,0,1,0-.46-0.19A0.66,0.66,0,0,0,7591.06,6996.55Z" transform="translate(-7551.55 -6946.58)" style="fill:#fff"/></svg>