<svg id="Calque_1" data-name="Calque 1" xmlns="http://www.w3.org/2000/svg" viewBox="0 0 614.44 590.66"><title>element-database</title><g style="opacity:0.2"><polygon points="141.89 438.63 140.24 438.34 178.76 221.06 180.41 221.35 141.89 438.63" style="fill:#174572"/><polygon points="144.13 432.29 142.57 432.9 62.25 231.39 63.8 230.77 144.13 432.29" style="fill:#174572"/><rect x="1700.46" y="-333.13" width="114.97" height="1.67" transform="translate(-1619.73 643.76) rotate(-2.72)" style="fill:#174572"/><rect x="1784.16" y="-492.42" width="1.67" height="163.25" transform="translate(-1357.11 1194.42) rotate(-21.81)" style="fill:#174572"/><rect x="1644.55" y="-408.89" width="166.06" height="1.67" transform="translate(-85.65 1918.98) rotate(-71.03)" style="fill:#174572"/><rect x="1607.89" y="-269.72" width="128.86" height="1.67" transform="translate(-368.54 1936.83) rotate(-67.09)" style="fill:#174572"/><polygon points="140.29 435.68 9.24 351.79 10.14 350.38 141.18 434.27 140.29 435.68" style="fill:#174572"/><polygon points="78.14 483.41 8.95 351.47 10.43 350.7 79.61 482.63 78.14 483.41" style="fill:#174572"/><polygon points="79.36 483.7 78.39 482.34 140.58 437.81 141.55 439.17 79.36 483.7" style="fill:#174572"/><polygon points="208.67 577.24 142.59 432.95 144.11 432.25 210.19 576.54 208.67 577.24" style="fill:#174572"/><rect x="1780.81" y="-111.09" width="1.67" height="160.8" transform="translate(-870.97 1994.45) rotate(-54.29)" style="fill:#174572"/><polygon points="367.17 575.33 209.44 577.72 209.42 576.05 367.14 573.66 367.17 575.33" style="fill:#174572"/><rect x="1945.31" y="-47.23" width="120.51" height="1.66" transform="translate(386.13 2520.26) rotate(-89.19)" style="fill:#174572"/><polygon points="209.94 577.55 208.92 576.23 368.46 453.35 369.48 454.66 209.94 577.55" style="fill:#174572"/><polygon points="375.68 459.16 143.26 433.43 143.44 431.77 375.86 457.5 375.68 459.16" style="fill:#174572"/><polygon points="143.93 433.21 142.78 431.99 263.83 318.75 264.97 319.97 143.93 433.21" style="fill:#174572"/><rect x="1857.8" y="-351.94" width="1.67" height="127.57" transform="translate(-949.12 1744.92) rotate(-42.71)" style="fill:#174572"/><rect x="1764.97" y="-424.38" width="205.9" height="1.67" transform="translate(-357.52 1959.97) rotate(-59.35)" style="fill:#174572"/><rect x="2015.35" y="-562.9" width="1.66" height="230.99" transform="translate(-379.48 2034.27) rotate(-55.95)" style="fill:#174572"/><polygon points="263.16 324.48 262.21 323.1 477.54 174.39 478.49 175.76 263.16 324.48" style="fill:#174572"/><polygon points="368.33 454.55 259.88 327.72 261.15 326.64 369.61 453.46 368.33 454.55" style="fill:#174572"/><rect x="1983.38" y="-151.08" width="105.43" height="1.68" transform="translate(-622.66 2178.25) rotate(-55.77)" style="fill:#174572"/><rect x="1982.12" y="-300.87" width="1.66" height="171.04" transform="matrix(0.25, -0.97, 0.97, 0.25, 55.19, 2318.67)" style="fill:#174572"/><polygon points="429.04 367 427.41 366.61 473.56 177.71 475.19 178.1 429.04 367" style="fill:#174572"/><polygon points="551.91 401.49 550.33 402.03 473.58 178.17 475.17 177.63 551.91 401.49" style="fill:#174572"/><rect x="2126.33" y="-240.25" width="1.67" height="127.77" transform="translate(77.3 2478.53) rotate(-74.12)" style="fill:#174572"/><polygon points="553.72 405.18 369.19 454.81 368.75 453.2 553.27 403.56 553.72 405.18" style="fill:#174572"/><rect x="2099.52" y="-100.17" width="126.92" height="1.67" transform="translate(-340.66 2445.78) rotate(-63.79)" style="fill:#174572"/><polygon points="497.79 519.01 367.48 575.26 366.83 573.73 497.12 517.48 497.79 519.01" style="fill:#174572"/><polygon points="497.1 519 369.96 457.82 370.69 456.32 497.81 517.5 497.1 519" style="fill:#174572"/><polygon points="551.93 401.96 550.3 401.56 590.26 237.38 591.88 237.77 551.93 401.96" style="fill:#174572"/><rect x="2171.21" y="-418.91" width="1.67" height="129.19" transform="translate(-206.31 2278.63) rotate(-61.06)" style="fill:#174572"/><polygon points="478.67 175.59 477.37 174.55 531.67 106.63 532.97 107.67 478.67 175.59" style="fill:#174572"/><rect x="2198.36" y="-459.8" width="1.67" height="143.05" transform="translate(-1284 1429.6) rotate(-24.25)" style="fill:#174572"/><rect x="2105.8" y="-573.83" width="1.67" height="153.52" transform="translate(-317.78 2079.94) rotate(-55.4)" style="fill:#174572"/><polygon points="477.26 175.42 405.19 20.34 406.7 19.64 478.77 174.72 477.26 175.42" style="fill:#174572"/><polygon points="403.07 22.15 283.17 49.38 282.8 47.76 402.7 20.53 403.07 22.15" style="fill:#174572"/><polygon points="283.13 49.4 117.62 78.43 117.33 76.78 282.84 47.75 283.13 49.4" style="fill:#174572"/><rect x="1748.71" y="-514.64" width="157.58" height="1.67" transform="translate(-1291.71 1233.55) rotate(-22.99)" style="fill:#174572"/><polygon points="406.23 24.34 262.5 16.9 262.58 15.23 406.33 22.67 406.23 24.34" style="fill:#174572"/><polygon points="41.83 187.46 40.45 186.53 116.45 73.62 117.83 74.55 41.83 187.46" style="fill:#174572"/><polygon points="10.52 351.23 8.87 350.95 36.8 187.19 38.45 187.46 10.52 351.23" style="fill:#174572"/><rect x="1899.16" y="-400.92" width="1.67" height="180.5" transform="translate(-18.72 2154.55) rotate(-72.31)" style="fill:#174572"/><polygon points="366.29 454.25 364.62 454.42 347.65 277.47 349.31 277.31 366.29 454.25" style="fill:#174572"/><polygon points="318.49 537.86 146.77 433.92 147.64 432.5 319.36 536.43 318.49 537.86" style="fill:#174572"/><polygon points="319.65 537.55 318.19 536.74 364.73 453.93 366.18 454.74 319.65 537.55" style="fill:#174572"/><rect x="1843.76" y="-3.28" width="113.22" height="1.67" transform="translate(-1530.18 1187.78) rotate(-19.27)" style="fill:#174572"/><rect x="1693.78" y="-377.58" width="224.69" height="1.67" transform="translate(-1358.11 1219.81) rotate(-22.37)" style="fill:#174572"/><rect x="2013.56" y="-506.37" width="1.67" height="212.32" transform="translate(404.17 2214.02) rotate(-79.52)" style="fill:#174572"/><polygon points="498.1 518.77 496.81 517.72 599.39 391.44 600.68 392.5 498.1 518.77" style="fill:#174572"/><polygon points="600.87 391.92 599.2 392.01 590.24 237.63 591.9 237.53 600.87 391.92" style="fill:#174572"/><circle cx="1676.52" cy="-373.44" r="14.4" transform="translate(-1344.2 1205.47) rotate(-23.8)" style="fill:#174572"/><path d="M1665.08-215.68a14.4,14.4,0,0,1-7.36,19,14.4,14.4,0,0,1-19-7.37,14.4,14.4,0,0,1,7.37-19A14.4,14.4,0,0,1,1665.08-215.68Z" transform="translate(-1637.5 560.64)" style="fill:#174572"/><circle cx="1701.24" cy="-326.64" r="14.4" transform="translate(-1361.03 1219.36) rotate(-23.8)" style="fill:#174572"/><circle cx="1754.64" cy="-486.56" r="14.4" transform="translate(-1291.91 1227.38) rotate(-23.8)" style="fill:#174572"/><circle cx="1815.36" cy="-335.02" r="14.4" transform="translate(-1347.94 1264.71) rotate(-23.8)" style="fill:#174572"/><circle cx="1784.7" cy="-127.43" r="14.4" transform="translate(-1434.29 1270.04) rotate(-23.8)" style="fill:#174572"/><circle cx="1953.81" cy="-21.13" r="14.4" transform="translate(-1462.84 1347.25) rotate(-23.8)" style="fill:#174572"/><circle cx="2006.47" cy="-106.65" r="14.4" transform="translate(-1423.85 1361.24) rotate(-23.8)" style="fill:#174572"/><circle cx="1900.18" cy="-236.86" r="14.4" transform="translate(-1380.31 1307.33) rotate(-23.8)" style="fill:#174572"/><circle cx="1980.48" cy="-280.7" r="14.4" transform="translate(-1355.74 1336.08) rotate(-23.8)" style="fill:#174572"/><circle cx="2066.91" cy="-195.32" r="14.4" transform="translate(-1382.86 1378.21) rotate(-23.8)" style="fill:#174572"/><circle cx="2110.22" cy="-379.95" r="14.4" transform="translate(-1304.75 1379.85) rotate(-23.8)" style="fill:#174572"/><circle cx="1913.87" cy="-418.09" r="14.4" transform="translate(-1306.05 1297.39) rotate(-23.8)" style="fill:#174572"/><circle cx="1921.49" cy="-506.54" r="14.4" transform="translate(-1269.61 1293.07) rotate(-23.8)" style="fill:#174572"/><circle cx="1900.49" cy="-546.24" r="14.4" transform="translate(-1255.48 1281.08) rotate(-23.8)" style="fill:#174572"/><path d="M2056.94-542.95a14.4,14.4,0,0,1-7.36,19,14.41,14.41,0,0,1-19-7.37,14.4,14.4,0,0,1,7.37-19A14.39,14.39,0,0,1,2056.94-542.95Z" transform="translate(-1637.5 560.64)" style="fill:#174572"/><circle cx="2166.2" cy="-451.26" r="14.4" transform="matrix(0.91, -0.4, 0.4, 0.91, -1271.1, 1396.54)" style="fill:#174572"/><path d="M2242.27-335.6a14.4,14.4,0,0,1-7.37,19,14.39,14.39,0,0,1-19-7.37,14.39,14.39,0,0,1,7.35-19A14.4,14.4,0,0,1,2242.27-335.6Z" transform="translate(-1637.5 560.64)" style="fill:#174572"/><circle cx="2187.87" cy="-160.72" r="14.4" transform="translate(-1386.52 1429.99) rotate(-23.8)" style="fill:#174572"/><circle cx="2237.54" cy="-168.68" r="14.4" transform="translate(-1379.17 1449.19) rotate(-23.8)" style="fill:#174572"/><circle cx="2134.95" cy="-42.4" r="14.4" transform="translate(-1438.84 1418.56) rotate(-23.8)" style="fill:#174572"/><circle cx="2003.44" cy="10.95" r="14.4" transform="translate(-1471.52 1370.09) rotate(-23.8)" style="fill:#174572"/><circle cx="1852.78" cy="15.61" r="14.4" transform="translate(-1486.26 1309.61) rotate(-23.8)" style="fill:#174572"/><circle cx="1716.37" cy="-77.62" r="14.4" transform="translate(-1460.23 1246.63) rotate(-23.8)" style="fill:#174572"/><rect x="1944.77" y="-423.39" width="1.67" height="150.13" transform="translate(-1282.74 1385.31) rotate(-26.25)" style="fill:#174572"/><polygon points="273.94 147.44 272.79 146.24 400.09 23.34 401.25 24.55 273.94 147.44" style="fill:#174572"/><polygon points="468.25 177.69 180.05 225.18 179.78 223.53 467.99 176.05 468.25 177.69" style="fill:#174572"/><polygon points="585.49 233.73 348.64 278.21 348.33 276.57 585.18 232.09 585.49 233.73" style="fill:#174572"/></g></svg>