<svg id="Calque_1" data-name="Calque 1" xmlns="http://www.w3.org/2000/svg" viewBox="0 0 485.53 488.31"><title>element-industriel</title><g style="opacity:0.2"><circle cx="5029.96" cy="4857.04" r="19.31" transform="translate(-5971.28 3194.54) rotate(-68.8)" style="fill:#f8f9fc"/><circle cx="5087.54" cy="4647.42" r="19.31" transform="translate(-5738.97 3114.65) rotate(-68.8)" style="fill:#f8f9fc"/><circle cx="4968.88" cy="4614.85" r="19.31" transform="translate(-5784.35 2983.22) rotate(-68.8)" style="fill:#f8f9fc"/><circle cx="5120.12" cy="4766.08" r="19.31" transform="translate(-5828.81 3220.77) rotate(-68.8)" style="fill:#f8f9fc"/><circle cx="4881.46" cy="4703.88" r="19.31" transform="translate(-5923.32 2958.25) rotate(-68.8)" style="fill:#f8f9fc"/><circle cx="4911.7" cy="4826.04" r="19.31" transform="translate(-6017.9 3064.42) rotate(-68.8)" style="fill:#f8f9fc"/><circle cx="4823.29" cy="4910.96" r="19.31" transform="translate(-6153.51 3036.21) rotate(-68.8)" style="fill:#f8f9fc"/><circle cx="4705.21" cy="4876.64" r="19.31" transform="translate(-6196.89 2904.21) rotate(-68.8)" style="fill:#f8f9fc"/><circle cx="4673.22" cy="4758.56" r="19.31" transform="translate(-6107.23 2799.01) rotate(-68.8)" style="fill:#f8f9fc"/><circle cx="4857.61" cy="5029.04" r="19.31" transform="translate(-6241.69 3143.58) rotate(-68.8)" style="fill:#f8f9fc"/><circle cx="4975.69" cy="5064.52" r="19.31" transform="translate(-6199.39 3276.32) rotate(-68.8)" style="fill:#f8f9fc"/><circle cx="5061.78" cy="4976.11" r="19.31" transform="translate(-6062.01 3300.14) rotate(-68.8)" style="fill:#f8f9fc"/><circle cx="4759.08" cy="4672.87" r="19.31" transform="translate(-5972.53 2824.36) rotate(-68.8)" style="fill:#f8f9fc"/><path d="M5033.18,4854.36l-0.37-.1-119.1-31.91-0.1-.38-31.91-119.1,87.47-87.46,0.37,0.1,119.1,31.91,0.1,0.38,31.91,119.1Zm-118.37-33.12,118,31.61,86.36-86.36-31.61-118-118-31.61-86.36,86.36Z" transform="translate(-4653.9 -4595.53)" style="fill:#f8f9fc"/><path d="M4978.32,5061.26l-0.37-.1-119.1-31.91-0.1-.38-31.91-119.1,87.47-87.46,0.37,0.1,119.1,31.91,0.1,0.38,31.91,119.1Zm-118.37-33.12,118,31.61,86.36-86.36-31.61-118-118-31.61-86.36,86.36Z" transform="translate(-4653.9 -4595.53)" style="fill:#f8f9fc"/><path d="M4828,4911.08l-0.37-.1-119.1-31.91-0.1-.38-31.91-119.1,87.47-87.46,0.37,0.1,119.1,31.91,0.1,0.38,31.91,119.1ZM4709.66,4878l118,31.61,86.36-86.36-31.61-118-118-31.61L4678,4760Z" transform="translate(-4653.9 -4595.53)" style="fill:#f8f9fc"/></g></svg>