<svg id="Calque_1" data-name="Calque 1" xmlns="http://www.w3.org/2000/svg" viewBox="0 0 102.26 102.26"><title>icone-energie</title><circle cx="51.13" cy="51.13" r="50.63" style="fill:#ff5c23;stroke:#fff;stroke-miterlimit:10"/><path d="M7401.1,6999.72a40.51,40.51,0,0,0,2.89-3.06c3.8-4.49,5.05-8.4,3.54-11-1.17-2-3.85-3-7.74-2.86a33,33,0,0,0-7.67,1.39,40.52,40.52,0,0,0-1.2-4c-2-5.53-4.75-8.58-7.77-8.58-2,0-3.95,1.37-5.58,4a29.84,29.84,0,0,0-3.38,8.66,40.51,40.51,0,0,0-4.1-1c-5.78-1-9.8-.18-11.31,2.44s-0.25,6.53,3.54,11a3.06,3.06,0,0,1,0,6.12c-3.8,4.49-5.05,8.4-3.54,11,1,1.75,3.16,2.73,6.21,2.86h0.69a31.41,31.41,0,0,0,8.51-1.41,40.49,40.49,0,0,0,1.2,4c2,5.53,4.75,8.58,7.77,8.58s5.78-3,7.77-8.58a40.51,40.51,0,0,0,1.2-4,33,33,0,0,0,7.67,1.39l0.83,0c3.44,0,5.82-1,6.91-2.87,1.51-2.62.25-6.53-3.54-11A40.58,40.58,0,0,0,7401.1,6999.72Zm4.88-13.18c1.09,1.88-.14,5.15-3.36,9a38.91,38.91,0,0,1-2.84,3,10.42,10.42,0,0,1-7.25-12.55C7399.32,6984,7404.58,6984.11,7406,6986.54Zm-22.82,23.25c-1.49-.73-3-1.52-4.45-2.37s-2.91-1.75-4.28-2.66c-0.11-1.64-.17-3.33-0.17-5s0.06-3.39.17-5q2-1.38,4.27-2.66c1.47-.85,3-1.64,4.45-2.37,1.48,0.73,3,1.52,4.44,2.37s2.91,1.75,4.28,2.66c0.11,1.64.17,3.33,0.17,5s-0.06,3.39-.17,5c-1.37.92-2.8,1.81-4.28,2.66S7384.65,7009.06,7383.16,7009.79Zm-10.6-6.34a59.68,59.68,0,0,1-4.69-3.73,59.74,59.74,0,0,1,4.69-3.74q-0.09,1.85-.09,3.74T7372.57,7003.45Zm21.19-7.47a59.68,59.68,0,0,1,4.69,3.73,59.7,59.7,0,0,1-4.69,3.73q0.09-1.84.09-3.73T7393.76,6996Zm-10.6-22.62c2.18,0,4.39,2.69,6.08,7.39a38.94,38.94,0,0,1,1.18,4q-1.63.54-3.34,1.22a0.9,0.9,0,0,0,.67,1.67q1.57-.63,3.07-1.12a59.69,59.69,0,0,1,.89,5.92q-1.55-1-3.19-1.95a68.78,68.78,0,0,0-12.59-5.75C7377.59,6977.79,7380.4,6973.37,7383.16,6973.37Zm-19.46,22.13c-3.22-3.81-4.45-7.07-3.36-9s4.53-2.46,9.44-1.57a49.89,49.89,0,0,1,11.32,3.7c-1.1.57-2.2,1.16-3.28,1.79s-2.15,1.28-3.18,1.94c0.12-1.15.26-2.28,0.43-3.39a0.9,0.9,0,1,0-1.78-.28c-0.25,1.6-.44,3.26-0.58,4.95a63,63,0,0,0-6.17,4.81A38.93,38.93,0,0,1,7363.7,6995.5Zm-3.36,17.4c-1.09-1.88.14-5.15,3.36-9a38.91,38.91,0,0,1,2.84-3,10.42,10.42,0,0,1,7.25,12.56C7367,7015.5,7361.72,7015.28,7360.34,7012.89Zm28.9,5.79c-1.69,4.69-3.9,7.39-6.08,7.39s-4.39-2.69-6.08-7.39a49.89,49.89,0,0,1-2.46-11.65q1.55,1,3.19,1.95c1.08,0.62,2.18,1.22,3.28,1.79q-1.58.71-3.16,1.32a0.9,0.9,0,1,0,.65,1.68,71.55,71.55,0,0,0,9.92-4.78q1.64-.94,3.19-1.95a59.72,59.72,0,0,1-.89,5.92q-1.5-.5-3.07-1.12a0.9,0.9,0,0,0-.67,1.67q1.71,0.68,3.34,1.22A39,39,0,0,1,7389.24,7018.68Zm16.74-5.79c-1.4,2.43-6.66,2.59-13.45.6a10.42,10.42,0,0,1,7.25-12.55,39,39,0,0,1,2.84,3C7405.85,7007.74,7407.07,7011,7406,7012.89Z" transform="translate(-7332.03 -6946.58)" style="fill:#fff"/><path d="M7383.16,6994.09a5.63,5.63,0,1,0,5.63,5.63A5.64,5.64,0,0,0,7383.16,6994.09Zm0,9.46a3.83,3.83,0,1,1,3.83-3.83A3.84,3.84,0,0,1,7383.16,7003.55Z" transform="translate(-7332.03 -6946.58)" style="fill:#fff"/></svg>