<?xml version="1.0" encoding="UTF-8"?>
<!-- Generator: Adobe Illustrator 19.1.0, SVG Export Plug-In . SVG Version: 6.00 Build 0)  -->
<!DOCTYPE svg PUBLIC "-//W3C//DTD SVG 1.1//EN" "http://www.w3.org/Graphics/SVG/1.1/DTD/svg11.dtd">
<svg version="1.1" id="Calque_1" xmlns="http://www.w3.org/2000/svg" xmlns:xlink="http://www.w3.org/1999/xlink" x="0px" y="0px" viewBox="0 0 1376.6 531.6" style="enable-background:new 0 0 1376.6 531.6;" xml:space="preserve">
<style type="text/css">
	.st0{fill:#06436F;}
</style>
<g>
	<polygon class="st0" points="426.8,9.6 413.2,9.6 103,9.6 89.5,9.6 24.7,9.6 263,521.2 492.8,9.6  "/>
	<g>
		<path class="st0" d="M1318.6,91.6h-174.5v120.4h168.4l-33.3,71h-135.1v238.4h-75.6V20.5h283.4L1318.6,91.6z"/>
	</g>
	<g>
		<path class="st0" d="M466.8,284.5l62.4-146.7l53.3,127c17.4-8.5,33.6-15.1,48.3-20.1L530.7,10.8L415.3,273.6l-66.7,151.6    c0,0,115.3-131.7,176.5-143.8"/>
		<path class="st0" d="M640.5,267.3c-13.9,9.6-28.4,20.6-43.2,32.6l13.8,33l21.2,51.1l57,137.3h59.9L640.5,267.3z"/>
		<path class="st0" d="M630.8,244.7c-14.7,5-30.9,11.6-48.3,20.1c-44.7,22-97.6,57.1-155.2,113.2c-38.6,37.6-79.2,84.5-120.8,143.2    h84.3c0,0,99-134.9,206.4-221.4c14.8-11.9,29.4-23,43.2-32.6c33.5-23.2,60.6-38.6,81.1-38.6C721.5,228.6,688.6,225,630.8,244.7z"/>
	</g>
	<path class="st0" d="M731.5,444.8l35,77.2h25.2h7.2h224.5l31.6-70H814.7c0,0,113.3-133.8,125.8-150c1.3-1.6,2.5-3.1,3.7-4.7   c13.9-18.4,24.5-34.2,31.8-47.6c14.3-25.8,21.4-52,21.4-78.8c0-29.4-7.4-55.4-22.3-78.1c-6.5-9.9-14.4-19.2-23.7-27.8   c-16.6-15.6-35.4-26.8-56.4-33.8c-17.4-5.8-36.3-9.9-56.7-9.9c-93,0-145.5,49.9-157.4,154.9h74.1c5.9-44,25.9-75.5,60-84.4   c7.8-2,16.3-2.5,25.6-2.5c21.2,0,39.3,6.3,54.5,18.6c1.9,1.5,3.8,3.3,5.6,5.1c16.2,15.5,24.3,34.8,24.3,57.8c0,16-6.1,34-18.2,54   c-3.1,5.4-7,11.4-11.6,18.1c-4.2,6.1-9,12.6-14.4,19.8"/>
</g>
</svg>