<?xml version="1.0" encoding="UTF-8"?>
<!-- Generator: Adobe Illustrator 19.1.0, SVG Export Plug-In . SVG Version: 6.00 Build 0)  -->
<!DOCTYPE svg PUBLIC "-//W3C//DTD SVG 1.1//EN" "http://www.w3.org/Graphics/SVG/1.1/DTD/svg11.dtd">
<svg version="1.1" id="Calque_1" xmlns="http://www.w3.org/2000/svg" xmlns:xlink="http://www.w3.org/1999/xlink" x="0px" y="0px" viewBox="0 0 181.4 31.5" style="enable-background:new 0 0 181.4 31.5;" xml:space="preserve">
<style type="text/css">
	.st0{fill:#F0FAFF;}
	.st1{fill:#F05944;}
	.st2{clip-path:url(#SVGID_2_);}
	.st3{clip-path:url(#SVGID_4_);}
	.st4{fill:none;}
	.st5{clip-path:url(#SVGID_6_);}
	.st6{clip-path:url(#SVGID_8_);}
	.st7{fill:#06436F;}
	.st8{opacity:0.4;}
	.st9{opacity:0.53;clip-path:url(#SVGID_10_);fill:#28282E;}
	.st10{fill:#44B2E6;}
	.st11{fill:url(#SVGID_11_);}
	.st12{opacity:0.91;fill:url(#SVGID_14_);}
	.st13{fill:#FFFFFF;}
	.st14{fill:none;stroke:#C7E8FF;stroke-miterlimit:10;}
	.st15{opacity:0.2;fill:url(#SVGID_15_);}
	.st16{opacity:0.1;}
	.st17{fill:#F7931E;}
	.st18{fill:none;stroke:#D3DCE7;stroke-miterlimit:10;}
	.st19{fill:#939CA3;}
	.st20{fill:#F8F9FC;}
	.st21{fill:url(#SVGID_16_);}
	.st22{fill:url(#SVGID_17_);}
	.st23{fill:url(#SVGID_18_);}
	.st24{fill:url(#SVGID_19_);}
	.st25{opacity:0.1;fill:#174572;}
	.st26{fill:#5B7B84;}
	.st27{fill:#FAFAFA;}
	.st28{fill:url(#SVGID_20_);}
	.st29{fill:url(#SVGID_21_);}
	.st30{fill:url(#SVGID_22_);}
	.st31{fill:url(#SVGID_23_);}
	.st32{opacity:0.5;}
	.st33{opacity:0.2;fill:none;stroke:#FFFFFF;stroke-miterlimit:10;}
	.st34{opacity:0.16;fill:none;stroke:#FFFFFF;stroke-miterlimit:10;}
	.st35{opacity:0.12;fill:none;stroke:#FFFFFF;stroke-miterlimit:10;}
	.st36{opacity:8.000000e-02;fill:none;stroke:#FFFFFF;stroke-miterlimit:10;}
	.st37{opacity:4.000000e-02;fill:none;stroke:#FFFFFF;stroke-miterlimit:10;}
	.st38{opacity:0;fill:none;stroke:#FFFFFF;stroke-miterlimit:10;}
	.st39{fill:none;stroke:#44B2E6;stroke-miterlimit:10;}
	.st40{opacity:0.82;fill:none;stroke:#44B2E6;stroke-miterlimit:10;}
	.st41{opacity:0.64;fill:none;stroke:#44B2E6;stroke-miterlimit:10;}
	.st42{opacity:0.46;fill:none;stroke:#44B2E6;stroke-miterlimit:10;}
	.st43{opacity:0.28;fill:none;stroke:#44B2E6;stroke-miterlimit:10;}
	.st44{opacity:0.1;fill:none;stroke:#44B2E6;stroke-miterlimit:10;}
	.st45{fill:none;stroke:#44B2E6;stroke-width:2.5;stroke-linejoin:round;stroke-miterlimit:10;}
	.st46{fill:none;stroke:#44B2E6;stroke-width:2.5;stroke-linecap:round;stroke-linejoin:round;stroke-miterlimit:10;}
	.st47{fill:none;stroke:#FFFFFF;stroke-width:1.5;stroke-linecap:round;stroke-linejoin:round;stroke-miterlimit:10;}
	.st48{fill:none;stroke:#D3DCE7;stroke-width:2;stroke-miterlimit:10;}
	.st49{clip-path:url(#SVGID_25_);}
	.st50{clip-path:url(#SVGID_27_);}
	.st51{fill:url(#SVGID_28_);}
	.st52{fill:url(#SVGID_29_);}
	.st53{fill:url(#SVGID_30_);}
	.st54{fill:url(#SVGID_31_);}
	.st55{fill:#CCCCCC;}
	.st56{fill:none;stroke:#44B2E6;stroke-width:2;stroke-linecap:round;stroke-linejoin:round;stroke-miterlimit:10;}
	.st57{fill:none;stroke:#FFFFFF;stroke-width:2;stroke-linecap:round;stroke-linejoin:round;stroke-miterlimit:10;}
	.st58{clip-path:url(#SVGID_33_);}
	.st59{opacity:0.53;clip-path:url(#SVGID_33_);fill:#28282E;}
	.st60{clip-path:url(#SVGID_35_);}
	.st61{opacity:0.53;clip-path:url(#SVGID_35_);fill:#28282E;}
	.st62{clip-path:url(#SVGID_37_);}
	.st63{clip-path:url(#SVGID_39_);}
	.st64{fill:none;stroke:#666666;stroke-miterlimit:10;}
	.st65{fill:#666666;}
	.st66{clip-path:url(#SVGID_41_);}
	.st67{opacity:0.3;clip-path:url(#SVGID_43_);enable-background:new    ;}
	.st68{clip-path:url(#SVGID_45_);}
	.st69{clip-path:url(#SVGID_47_);fill:none;stroke:#FFFFFF;stroke-width:2;stroke-miterlimit:10;}
	.st70{clip-path:url(#SVGID_49_);}
	.st71{opacity:0.5;clip-path:url(#SVGID_51_);enable-background:new    ;}
	.st72{clip-path:url(#SVGID_53_);}
	.st73{clip-path:url(#SVGID_55_);fill:none;stroke:#FFFFFF;stroke-width:2;stroke-miterlimit:10;}
	.st74{clip-path:url(#SVGID_51_);fill:none;stroke:#FFFFFF;stroke-width:2;stroke-miterlimit:10;}
	.st75{clip-path:url(#SVGID_57_);}
	.st76{clip-path:url(#SVGID_59_);fill:#FFFFFF;}
	.st77{fill-rule:evenodd;clip-rule:evenodd;fill:none;}
	.st78{clip-path:url(#SVGID_61_);}
	.st79{clip-path:url(#SVGID_63_);}
	.st80{clip-path:url(#SVGID_65_);fill:#6563A4;}
	.st81{clip-path:url(#SVGID_67_);}
	.st82{clip-path:url(#SVGID_69_);}
	.st83{opacity:0;clip-path:url(#SVGID_71_);}
	.st84{opacity:0;}
	.st85{clip-path:url(#SVGID_73_);}
	.st86{clip-path:url(#SVGID_77_);}
	.st87{clip-path:url(#SVGID_79_);}
	.st88{clip-path:url(#SVGID_81_);}
	.st89{clip-path:url(#SVGID_79_);fill:#F47D62;}
	.st90{clip-path:url(#SVGID_85_);}
	.st91{clip-path:url(#SVGID_87_);fill:#FF5C23;}
	.st92{enable-background:new    ;}
	.st93{clip-path:url(#SVGID_89_);}
	.st94{clip-path:url(#SVGID_91_);fill:none;stroke:#1D1D26;stroke-width:4;stroke-miterlimit:10;}
	.st95{fill:none;stroke:#44B2E6;stroke-width:4;stroke-miterlimit:10;}
	.st96{clip-path:url(#SVGID_93_);}
	.st97{opacity:0.1;clip-path:url(#SVGID_95_);enable-background:new    ;}
	.st98{clip-path:url(#SVGID_97_);}
	.st99{clip-path:url(#SVGID_99_);fill:none;stroke:#1D1D26;stroke-width:4;stroke-miterlimit:10;}
	.st100{clip-path:url(#SVGID_95_);fill:none;stroke:#FCAB53;stroke-width:4;stroke-miterlimit:10;}
	.st101{opacity:0.1;clip-path:url(#SVGID_101_);enable-background:new    ;}
	.st102{clip-path:url(#SVGID_103_);}
	.st103{clip-path:url(#SVGID_105_);fill:none;stroke:#1D1D26;stroke-width:4;stroke-miterlimit:10;}
	.st104{clip-path:url(#SVGID_101_);fill:none;stroke:#FFFFFF;stroke-width:4;stroke-miterlimit:10;}
	.st105{fill:none;stroke:#FFFFFF;stroke-width:2.5;stroke-linejoin:round;stroke-miterlimit:10;}
	.st106{opacity:0.59;fill:#F60000;}
	.st107{clip-path:url(#SVGID_107_);}
	.st108{fill:#A4A4A4;}
	.st109{fill:#174572;}
	.st110{fill:#F60000;}
	.st111{clip-path:url(#SVGID_111_);}
	.st112{clip-path:url(#SVGID_115_);}
	.st113{opacity:0;clip-path:url(#SVGID_115_);fill:#28282E;}
	.st114{clip-path:url(#SVGID_119_);}
	.st115{clip-path:url(#SVGID_123_);}
	.st116{clip-path:url(#SVGID_125_);}
	.st117{fill:none;stroke:#FFFFFF;stroke-miterlimit:10;}
	.st118{fill:#EA252E;}
	.st119{clip-path:url(#SVGID_127_);}
	.st120{clip-path:url(#SVGID_129_);}
	.st121{fill:#FFFFFF;stroke:#FFFFFF;stroke-miterlimit:10;}
	.st122{clip-path:url(#SVGID_131_);}
	.st123{clip-path:url(#SVGID_133_);}
	.st124{fill:url(#SVGID_134_);}
	.st125{fill:url(#SVGID_135_);}
	.st126{fill:url(#SVGID_136_);}
	.st127{fill:url(#SVGID_137_);}
	.st128{fill:url(#SVGID_138_);}
	.st129{fill:url(#SVGID_139_);}
	.st130{fill:url(#SVGID_140_);}
	.st131{fill:url(#SVGID_141_);}
	.st132{fill:url(#SVGID_142_);}
	.st133{fill:url(#SVGID_143_);}
	.st134{fill:url(#SVGID_144_);}
	.st135{fill:url(#SVGID_145_);}
	.st136{fill:url(#SVGID_146_);}
	.st137{fill:url(#SVGID_147_);}
	.st138{fill:url(#SVGID_148_);}
	.st139{fill:url(#SVGID_149_);}
	.st140{fill:url(#SVGID_150_);}
	.st141{fill:url(#SVGID_151_);}
	.st142{fill:url(#SVGID_152_);}
	.st143{fill:url(#SVGID_153_);}
	.st144{fill:url(#SVGID_154_);}
	.st145{fill:url(#SVGID_155_);}
	.st146{fill:url(#SVGID_156_);}
	.st147{fill:url(#SVGID_157_);}
	.st148{fill:url(#SVGID_158_);}
	.st149{fill:url(#SVGID_159_);}
	.st150{fill:url(#SVGID_160_);}
	.st151{fill:url(#SVGID_161_);}
	.st152{fill:url(#SVGID_162_);}
	.st153{fill:url(#SVGID_163_);}
	.st154{fill:url(#SVGID_164_);}
	.st155{fill:url(#SVGID_165_);}
	.st156{fill:url(#SVGID_166_);}
	.st157{fill:url(#SVGID_167_);}
	.st158{fill:url(#SVGID_168_);}
	.st159{fill:url(#SVGID_169_);}
	.st160{fill:url(#SVGID_170_);}
	.st161{fill:url(#SVGID_171_);}
	.st162{fill:url(#SVGID_172_);}
	.st163{fill:url(#SVGID_173_);}
	.st164{fill:url(#SVGID_174_);}
	.st165{fill:url(#SVGID_175_);}
	.st166{fill:url(#SVGID_176_);}
	.st167{fill:url(#SVGID_177_);}
	.st168{fill:url(#SVGID_178_);}
	.st169{fill:url(#SVGID_179_);}
	.st170{fill:url(#SVGID_180_);}
	.st171{fill:url(#SVGID_181_);}
	.st172{fill:url(#SVGID_182_);}
	.st173{fill:url(#SVGID_183_);}
	.st174{fill:url(#SVGID_184_);}
	.st175{fill:url(#SVGID_185_);}
	.st176{fill:url(#SVGID_186_);}
	.st177{fill:url(#SVGID_187_);}
	.st178{fill:url(#SVGID_188_);}
	.st179{fill:url(#SVGID_189_);}
	.st180{fill:url(#SVGID_190_);}
	.st181{fill:url(#SVGID_191_);}
	.st182{fill:url(#SVGID_192_);}
	.st183{fill:url(#SVGID_193_);}
	.st184{fill:url(#SVGID_194_);}
	.st185{fill:url(#SVGID_195_);}
	.st186{fill:url(#SVGID_196_);}
	.st187{fill:url(#SVGID_197_);}
	.st188{fill:url(#SVGID_198_);}
	.st189{fill:url(#SVGID_199_);}
	.st190{fill:url(#SVGID_200_);}
	.st191{fill:url(#SVGID_201_);}
	.st192{fill:url(#SVGID_202_);}
	.st193{fill:url(#SVGID_203_);}
	.st194{fill:url(#SVGID_204_);}
	.st195{fill:url(#SVGID_205_);}
	.st196{fill:url(#SVGID_206_);}
	.st197{fill:url(#SVGID_207_);}
	.st198{fill:url(#SVGID_208_);}
	.st199{fill:url(#SVGID_209_);}
	.st200{fill:url(#SVGID_210_);}
	.st201{fill:url(#SVGID_211_);}
	.st202{fill:url(#SVGID_212_);}
	.st203{fill:url(#SVGID_213_);}
	.st204{fill:url(#SVGID_214_);}
	.st205{fill:url(#SVGID_215_);}
	.st206{fill:url(#SVGID_216_);}
	.st207{fill:url(#SVGID_217_);}
	.st208{fill:url(#SVGID_218_);}
	.st209{fill:url(#SVGID_219_);}
	.st210{fill:url(#SVGID_220_);}
	.st211{fill:url(#SVGID_221_);}
	.st212{fill:url(#SVGID_222_);}
	.st213{fill:url(#SVGID_223_);}
	.st214{fill:url(#SVGID_224_);}
	.st215{fill:url(#SVGID_225_);}
	.st216{fill:url(#SVGID_226_);}
	.st217{fill:url(#SVGID_227_);}
	.st218{fill:url(#SVGID_228_);}
	.st219{fill:url(#SVGID_229_);}
	.st220{fill:url(#SVGID_230_);}
	.st221{fill:url(#SVGID_231_);}
	.st222{fill:url(#SVGID_232_);}
	.st223{fill:url(#SVGID_233_);}
	.st224{fill:url(#SVGID_234_);}
	.st225{fill:url(#SVGID_235_);}
	.st226{fill:url(#SVGID_236_);}
	.st227{fill:url(#SVGID_237_);}
	.st228{fill:url(#SVGID_238_);}
	.st229{fill:url(#SVGID_239_);}
	.st230{fill:url(#SVGID_240_);}
	.st231{fill-rule:evenodd;clip-rule:evenodd;fill:#FFFFFF;}
	.st232{fill:url(#SVGID_241_);}
	.st233{fill:url(#SVGID_242_);}
	.st234{fill:url(#SVGID_243_);}
	.st235{fill:url(#SVGID_244_);}
	.st236{clip-path:url(#SVGID_246_);}
	.st237{fill:#808080;}
	.st238{fill:url(#SVGID_247_);}
	.st239{fill:url(#SVGID_248_);}
	.st240{fill:url(#SVGID_249_);}
	.st241{fill:url(#SVGID_250_);}
	.st242{fill:#FF5C23;stroke:#FFFFFF;stroke-miterlimit:10;}
	.st243{fill:#FF5C23;}
	.st244{fill:none;stroke:#06436F;stroke-miterlimit:10;}
	.st245{fill:#EE7838;}
	.st246{fill:#EFEFEF;}
	.st247{fill:url(#SVGID_251_);}
	.st248{fill:none;stroke:#E5E6E9;stroke-width:6;stroke-miterlimit:10;}
	.st249{fill:#E5E6E9;}
	.st250{fill:#FCB919;}
	.st251{fill:#ED2F24;}
	.st252{fill:#F47E20;}
	.st253{fill:none;stroke:#F7931E;stroke-miterlimit:10;}
</style>
<g>
	<rect x="1.2" y="3.2" class="st13" width="112.3" height="25.2"/>
	<g id="layer1_2_" transform="translate(-702.6538,-712.5837)">
		<g id="g16337_2_">
			<path id="path16197_2_" class="st118" d="M751.5,730.3h6.5l-3.4-5.5l-6.3,9.9h-2.9l7.6-11.9c0.3-0.5,0.9-0.8,1.5-0.8     c0.6,0,1.1,0.3,1.5,0.8l7.7,12h-2.9l-1.3-2.2H753L751.5,730.3z M781.2,732.5v-10.4h-2.4v11.4c0,0.3,0.1,0.6,0.4,0.8     c0.2,0.2,0.5,0.4,0.9,0.4h11.1l1.4-2.2H781.2z M741.1,730.6c2.4,0,4.3-1.9,4.3-4.3s-1.9-4.3-4.3-4.3h-10.6v12.6h2.4v-10.4h8     c1.1,0,2,0.9,2,2s-0.9,2-2,2l-6.8,0l7.2,6.3h3.5l-4.9-4.1H741.1z M715.6,734.7c-3.5,0-6.3-2.8-6.3-6.3c0-3.5,2.8-6.3,6.3-6.3h7.3     c3.5,0,6.3,2.8,6.3,6.3c0,3.5-2.8,6.3-6.3,6.3H715.6z M722.8,732.5c2.3,0,4.1-1.8,4.1-4.1c0-2.3-1.8-4.1-4.1-4.1h-7     c-2.3,0-4.1,1.8-4.1,4.1c0,2.3,1.8,4.1,4.1,4.1H722.8z M768.8,734.7c-3.5,0-6.3-2.8-6.3-6.3c0-3.5,2.8-6.3,6.3-6.3h8.7l-1.4,2.2     h-7.1c-2.3,0-4.1,1.8-4.1,4.1c0,2.3,1.8,4.1,4.1,4.1h8.7l-1.4,2.2H768.8z M798.4,732.5c-1.9,0-3.4-1.2-3.9-3h10.4l1.4-2.2h-11.8     c0.5-1.7,2.1-3,3.9-3h7.1l1.4-2.2h-8.7c-3.5,0-6.3,2.8-6.3,6.3c0,3.5,2.8,6.3,6.3,6.3h7.5l1.4-2.2H798.4"/>
			<path id="path16199_2_" class="st118" d="M808.3,723.4c0-0.6,0.5-1.1,1.1-1.1c0.6,0,1.1,0.5,1.1,1.1c0,0.6-0.5,1.1-1.1,1.1     C808.7,724.5,808.3,724.1,808.3,723.4z M809.4,724.9c0.8,0,1.4-0.6,1.4-1.4s-0.6-1.4-1.4-1.4c-0.8,0-1.4,0.6-1.4,1.4     S808.6,724.9,809.4,724.9z M809.2,722.6c0.2,0,0.3,0,0.4,0.1c0.3,0.1,0.3,0.3,0.3,0.4c0,0,0,0.1,0,0.1c0,0.1-0.1,0.2-0.2,0.3     c0,0,0,0-0.1,0l0.4,0.7h-0.4l-0.3-0.6h-0.2v0.6h-0.3v-1.6H809.2z M809.3,723.3c0.1,0,0.2,0,0.3-0.1c0,0,0-0.1,0-0.1     c0-0.1-0.1-0.2-0.1-0.2c-0.1,0-0.1,0-0.3,0h-0.1v0.5H809.3"/>
		</g>
	</g>
	<g>
		<path class="st13" d="M120.3,3.7c0.5-0.1,1.3-0.2,2-0.2c1.1,0,2,0.2,2.7,0.8c0.6,0.5,0.9,1.3,0.9,2.2c0,1.1-0.3,1.8-0.8,2.4    c-0.6,0.6-1.6,0.9-2.4,0.9c-0.1,0-0.3,0-0.4,0v3.7h-1.9V3.7z M122.2,8.2c0.1,0,0.2,0,0.3,0c1,0,1.4-0.7,1.4-1.6    c0-0.9-0.4-1.5-1.2-1.5c-0.2,0-0.4,0-0.5,0.1V8.2z"/>
		<path class="st13" d="M128.4,3.3h1.9v10.2h-1.9V3.3z"/>
		<path class="st13" d="M136.6,13.5l-0.1-0.7h0c-0.4,0.6-1,0.8-1.6,0.8c-1.1,0-1.9-0.9-1.9-2.2c0-1.9,1.7-2.7,3.3-2.7V8.6    c0-0.6-0.3-1-1-1c-0.6,0-1,0.1-1.5,0.4l-0.4-1.3c0.4-0.2,1.2-0.5,2.2-0.5c2.2,0,2.5,1.5,2.5,3v2.7c0,0.6,0,1.2,0.1,1.6H136.6z     M136.3,10c-0.6,0-1.5,0.2-1.5,1.2c0,0.7,0.4,1,0.7,1c0.3,0,0.7-0.2,0.8-0.6c0-0.1,0-0.2,0-0.3V10z"/>
		<path class="st13" d="M143.3,4.4v1.9h1.4v1.4h-1.4v3.3c0,0.8,0.4,1,0.7,1c0.2,0,0.3,0,0.5,0l0,1.5c-0.3,0.1-0.7,0.1-1.2,0.1    c-0.6,0-1-0.1-1.4-0.5c-0.4-0.4-0.6-0.9-0.6-2.1V7.7h-0.9V6.3h0.9V4.8L143.3,4.4z"/>
		<path class="st13" d="M149.1,4.4c0,0.6-0.4,1-1,1c-0.5,0-1-0.4-1-1c0-0.6,0.5-1,1-1C148.7,3.3,149.1,3.7,149.1,4.4z M147.2,13.5    V6.3h1.9v7.2H147.2z"/>
		<path class="st13" d="M152.1,8.4c0-0.8,0-1.5-0.1-2.2h1.7l0.1,0.8h0c0.4-0.6,1-0.9,1.7-0.9c1.4,0,1.9,1.1,1.9,2.7v4.6h-1.9V9    c0-0.6-0.1-1.2-0.7-1.2c-0.3,0-0.6,0.2-0.7,0.6C154,8.6,154,8.8,154,9.1v4.4h-1.9V8.4z"/>
		<path class="st13" d="M165.6,11.3c0,0.8,0,1.5,0.1,2.2H164l-0.1-0.8h0c-0.3,0.5-0.9,0.9-1.7,0.9c-1.4,0-1.9-1-1.9-2.9V6.3h1.9v4.1    c0,0.9,0.2,1.5,0.7,1.5c0.3,0,0.5-0.2,0.6-0.5c0.1-0.1,0.1-0.4,0.1-0.6V6.3h1.9V11.3z"/>
		<path class="st13" d="M168.6,8.4c0-0.8,0-1.5-0.1-2.2h1.7l0.1,0.8h0c0.4-0.5,1-1,1.7-1c0.8,0,1.3,0.4,1.6,1h0    c0.2-0.3,0.4-0.5,0.7-0.7c0.3-0.2,0.6-0.2,1-0.2c1.3,0,1.8,1,1.8,2.7v4.5h-1.9V9.2c0-0.8-0.1-1.5-0.7-1.5c-0.3,0-0.6,0.2-0.7,0.7    c0,0.1-0.1,0.3-0.1,0.5v4.5H172V9c0-0.5-0.1-1.2-0.7-1.2c-0.3,0-0.6,0.2-0.7,0.6c0,0.1-0.1,0.3-0.1,0.5v4.5h-1.9V8.4z"/>
		<path class="st13" d="M120.3,18.2c0.5-0.1,1.3-0.2,2-0.2c1.1,0,2,0.2,2.7,0.8c0.6,0.5,0.9,1.3,0.9,2.2c0,1.1-0.3,1.8-0.8,2.4    c-0.6,0.6-1.6,0.9-2.4,0.9c-0.1,0-0.3,0-0.4,0V28h-1.9V18.2z M122.2,22.7c0.1,0,0.2,0,0.3,0c1,0,1.4-0.7,1.4-1.6    c0-0.9-0.4-1.5-1.2-1.5c-0.2,0-0.4,0-0.5,0.1V22.7z"/>
		<path class="st13" d="M131.4,28l-0.1-0.7h0c-0.4,0.6-1,0.8-1.6,0.8c-1.1,0-1.9-0.9-1.9-2.2c0-1.9,1.7-2.7,3.3-2.7v-0.2    c0-0.6-0.3-1-1-1c-0.6,0-1,0.1-1.5,0.4l-0.4-1.3c0.4-0.2,1.2-0.5,2.2-0.5c2.2,0,2.5,1.5,2.5,3v2.7c0,0.6,0,1.2,0.1,1.6H131.4z     M131.2,24.5c-0.6,0-1.5,0.2-1.5,1.2c0,0.7,0.4,1,0.7,1c0.3,0,0.7-0.2,0.8-0.6c0-0.1,0-0.2,0-0.3V24.5z"/>
		<path class="st13" d="M136,23c0-0.7,0-1.5-0.1-2.2h1.7l0.1,1h0c0.3-0.8,0.9-1.2,1.4-1.2c0.2,0,0.3,0,0.4,0v1.9c-0.1,0-0.2,0-0.4,0    c-0.4,0-1,0.3-1.2,1c0,0.2-0.1,0.4-0.1,0.7V28H136V23z"/>
		<path class="st13" d="M144.5,18.9v1.9h1.4v1.4h-1.4v3.3c0,0.8,0.4,1,0.7,1c0.2,0,0.3,0,0.5,0l0,1.5c-0.3,0.1-0.7,0.1-1.2,0.1    c-0.6,0-1-0.1-1.4-0.5c-0.4-0.4-0.6-0.9-0.6-2.1v-3.4h-0.9v-1.4h0.9v-1.5L144.5,18.9z"/>
		<path class="st13" d="M148.4,23c0-0.8,0-1.5-0.1-2.2h1.7l0.1,0.8h0c0.4-0.6,1-0.9,1.7-0.9c1.4,0,1.9,1.1,1.9,2.7V28h-1.9v-4.5    c0-0.6-0.1-1.2-0.7-1.2c-0.3,0-0.6,0.2-0.7,0.6c-0.1,0.1-0.1,0.4-0.1,0.7V28h-1.9V23z"/>
		<path class="st13" d="M158.3,25.1c0,1.1,0.7,1.5,1.5,1.5c0.5,0,1-0.1,1.4-0.2l0.3,1.4c-0.5,0.2-1.2,0.3-2,0.3c-2,0-3-1.3-3-3.5    c0-2.4,1.2-3.8,2.9-3.8c1.5,0,2.4,1.2,2.4,3.4c0,0.5,0,0.8-0.1,1H158.3z M160,23.7c0-0.9-0.2-1.6-0.8-1.6c-0.6,0-0.9,0.9-0.9,1.6    H160z"/>
		<path class="st13" d="M164.5,23c0-0.7,0-1.5-0.1-2.2h1.7l0.1,1h0c0.3-0.8,0.9-1.2,1.4-1.2c0.2,0,0.3,0,0.4,0v1.9    c-0.1,0-0.2,0-0.4,0c-0.4,0-1,0.3-1.2,1c0,0.2-0.1,0.4-0.1,0.7V28h-1.9V23z"/>
	</g>
</g>
</svg>